<svg width="32" height="32" viewBox="0 0 32 32" fill="none" xmlns="http://www.w3.org/2000/svg">
  <defs>
    <linearGradient id="syntraGradient" x1="0%" y1="0%" x2="100%" y2="100%">
      <stop offset="0%" style="stop-color:#002B5B;stop-opacity:1" />
      <stop offset="100%" style="stop-color:#00C2FF;stop-opacity:1" />
    </linearGradient>
  </defs>
  
  <!-- Background Circle -->
  <circle cx="16" cy="16" r="15" fill="url(#syntraGradient)" stroke="#ffffff" stroke-width="2"/>
  
  <!-- AI Brain/Circuit Pattern -->
  <g fill="#ffffff" opacity="0.9">
    <!-- Central Node -->
    <circle cx="16" cy="16" r="2.5" fill="#ffffff"/>
    
    <!-- Connection Lines -->
    <line x1="16" y1="8" x2="16" y2="13.5" stroke="#ffffff" stroke-width="1.5" stroke-linecap="round"/>
    <line x1="16" y1="18.5" x2="16" y2="24" stroke="#ffffff" stroke-width="1.5" stroke-linecap="round"/>
    <line x1="8" y1="16" x2="13.5" y2="16" stroke="#ffffff" stroke-width="1.5" stroke-linecap="round"/>
    <line x1="18.5" y1="16" x2="24" y2="16" stroke="#ffffff" stroke-width="1.5" stroke-linecap="round"/>
    
    <!-- Diagonal Connections -->
    <line x1="11.5" y1="11.5" x2="13.8" y2="13.8" stroke="#ffffff" stroke-width="1.2" stroke-linecap="round"/>
    <line x1="18.2" y1="18.2" x2="20.5" y2="20.5" stroke="#ffffff" stroke-width="1.2" stroke-linecap="round"/>
    <line x1="20.5" y1="11.5" x2="18.2" y2="13.8" stroke="#ffffff" stroke-width="1.2" stroke-linecap="round"/>
    <line x1="13.8" y1="18.2" x2="11.5" y2="20.5" stroke="#ffffff" stroke-width="1.2" stroke-linecap="round"/>
    
    <!-- Outer Nodes -->
    <circle cx="16" cy="8" r="1.5" fill="#ffffff"/>
    <circle cx="16" cy="24" r="1.5" fill="#ffffff"/>
    <circle cx="8" cy="16" r="1.5" fill="#ffffff"/>
    <circle cx="24" cy="16" r="1.5" fill="#ffffff"/>
    
    <!-- Corner Nodes -->
    <circle cx="11.5" cy="11.5" r="1" fill="#ffffff"/>
    <circle cx="20.5" cy="20.5" r="1" fill="#ffffff"/>
    <circle cx="20.5" cy="11.5" r="1" fill="#ffffff"/>
    <circle cx="11.5" cy="20.5" r="1" fill="#ffffff"/>
  </g>
  
  <!-- Subtle Glow Effect -->
  <circle cx="16" cy="16" r="14" fill="none" stroke="#00C2FF" stroke-width="0.5" opacity="0.3"/>
</svg>